<svg width="53" height="14" viewBox="0 0 53 14" fill="none" xmlns="http://www.w3.org/2000/svg">
<path d="M2.402 11.434H4.436C5.888 11.434 7.004 11.02 7.784 10.192C8.576 9.364 8.972 8.23 8.972 6.79C8.972 5.338 8.576 4.204 7.784 3.388C7.004 2.56 5.888 2.146 4.436 2.146H2.402V11.434ZM4.436 0.489999C6.452 0.489999 8.06 1.06 9.26 2.2C10.472 3.328 11.078 4.858 11.078 6.79C11.078 8.71 10.472 10.228 9.26 11.344C8.06 12.448 6.452 13 4.436 13H0.35V0.489999H4.436ZM17.2877 13.162C15.8477 13.162 14.6777 12.694 13.7777 11.758C12.8777 10.822 12.4277 9.58 12.4277 8.032C12.4277 6.484 12.8837 5.248 13.7957 4.324C14.7077 3.388 15.8837 2.92 17.3237 2.92C18.7757 2.92 19.9517 3.37 20.8517 4.27C21.7517 5.158 22.2017 6.322 22.2017 7.762C22.2017 8.11 22.1777 8.434 22.1297 8.734H14.5337C14.5817 9.562 14.8577 10.222 15.3617 10.714C15.8777 11.194 16.5197 11.434 17.2877 11.434C18.4037 11.434 19.1897 10.972 19.6457 10.048H21.8597C21.5597 10.96 21.0137 11.71 20.2217 12.298C19.4297 12.874 18.4517 13.162 17.2877 13.162ZM20.0597 7.33C20.0477 6.514 19.7777 5.866 19.2497 5.386C18.7217 4.894 18.0797 4.648 17.3237 4.648C16.5677 4.648 15.9317 4.894 15.4157 5.386C14.9117 5.866 14.6237 6.514 14.5517 7.33H20.0597ZM26.2731 3.082V4.648C26.9331 3.496 27.9891 2.92 29.4411 2.92C30.2091 2.92 30.8931 3.1 31.4931 3.46C32.0931 3.82 32.5491 4.342 32.8611 5.026C33.2091 4.366 33.6891 3.85 34.3011 3.478C34.9251 3.106 35.6271 2.92 36.4071 2.92C37.5471 2.92 38.4831 3.292 39.2151 4.036C39.9471 4.768 40.3131 5.806 40.3131 7.15V13H38.2611V7.456C38.2611 6.568 38.0391 5.89 37.5951 5.422C37.1511 4.942 36.5451 4.702 35.7771 4.702C35.0091 4.702 34.4031 4.942 33.9591 5.422C33.5151 5.89 33.2931 6.568 33.2931 7.456V13H31.2591V7.456C31.2591 6.568 31.0371 5.89 30.5931 5.422C30.1491 4.942 29.5431 4.702 28.7751 4.702C28.0071 4.702 27.3951 4.942 26.9391 5.422C26.4951 5.89 26.2731 6.568 26.2731 7.456V13H24.2211V3.082H26.2731ZM49.3682 10.534C49.9682 9.934 50.2682 9.1 50.2682 8.032C50.2682 6.964 49.9742 6.136 49.3862 5.548C48.8102 4.948 48.1082 4.648 47.2802 4.648C46.4522 4.648 45.7562 4.948 45.1922 5.548C44.6282 6.136 44.3462 6.97 44.3462 8.05C44.3462 9.118 44.6222 9.952 45.1742 10.552C45.7262 11.14 46.4102 11.434 47.2262 11.434C48.0542 11.434 48.7682 11.134 49.3682 10.534ZM47.2262 13.162C45.7862 13.162 44.5982 12.694 43.6622 11.758C42.7262 10.81 42.2582 9.574 42.2582 8.05C42.2582 6.514 42.7382 5.278 43.6982 4.342C44.6702 3.394 45.8762 2.92 47.3162 2.92C48.7562 2.92 49.9562 3.394 50.9162 4.342C51.8882 5.278 52.3742 6.508 52.3742 8.032C52.3742 9.556 51.8762 10.792 50.8802 11.74C49.8962 12.688 48.6782 13.162 47.2262 13.162Z" fill="#0593FB"/>
</svg>
